PathFileType  4	(X/Y/Z) C:\Users\antoi\Documents\MyRepositories\mobilecap\ResultsAnalysis
DataRate	CameraRate	NumFrames	NumMarkers	Units	OrigDataRate	OrigDataStartFrame	OrigNumFrames
100.0	100.0	4	55	mm	100.0	451	601
Frame#	Time	r_knee			r_shank_antsup			r_ankle			r_calc			r_5meta			r_toe			L_knee			L_shank_antsup			L_ankle			L_calc			L_5meta			L_toe			r_mknee			r_mankle			L_mknee			L_mankle			r_sh2			r_sh3			r_sh4			L_sh2			L_sh3			r_thigh1			r_thigh2			r_thigh3			r_thigh4			r_thigh5			L_thigh1			L_thigh2			L_thigh3			L_thigh4			r.ASIS			r.PSIS			L.ASIS			L.PSIS			C7			R_Shoulder			L_Shoulder			R_Sternum			L_Sternum			R_humerus			R_elbow_med			R_elbow_lat			R_forearm			R_wrist_radius			R_wrist_ulna			L_humerus			L_elbow_med			L_elbow_lat			L_forearm			L_wrist_radius			L_wrist_ulna			R_HJC			L_HJC			R_HJC_reg			L_HJC_reg			
		X1	Y1	Z1	X2	Y2	Z2	X3	Y3	Z3	X4	Y4	Z4	X5	Y5	Z5	X6	Y6	Z6	X7	Y7	Z7	X8	Y8	Z8	X9	Y9	Z9	X10	Y10	Z10	X11	Y11	Z11	X12	Y12	Z12	X13	Y13	Z13	X14	Y14	Z14	X15	Y15	Z15	X16	Y16	Z16	X17	Y17	Z17	X18	Y18	Z18	X19	Y19	Z19	X20	Y20	Z20	X21	Y21	Z21	X22	Y22	Z22	X23	Y23	Z23	X24	Y24	Z24	X25	Y25	Z25	X26	Y26	Z26	X27	Y27	Z27	X28	Y28	Z28	X29	Y29	Z29	X30	Y30	Z30	X31	Y31	Z31	X32	Y32	Z32	X33	Y33	Z33	X34	Y34	Z34	X35	Y35	Z35	X36	Y36	Z36	X37	Y37	Z37	X38	Y38	Z38	X39	Y39	Z39	X40	Y40	Z40	X41	Y41	Z41	X42	Y42	Z42	X43	Y43	Z43	X44	Y44	Z44	X45	Y45	Z45	X46	Y46	Z46	X47	Y47	Z47	X48	Y48	Z48	X49	Y49	Z49	X50	Y50	Z50	X51	Y51	Z51	X52	Y52	Z52	X53	Y53	Z53	X54	Y54	Z54	X55	Y55	Z55	

451	4.50000000	-196.66284	547.85553	-439.19407	-170.61977	451.89158	-446.12569	-274.18351	122.74112	-468.16025	-356.45918	74.34149	-516.21946	-166.19535	47.72693	-415.55121	-104.15678	74.14249	-475.43132	-193.28790	548.67468	-778.30378	-199.08718	460.05888	-803.18386	-259.30601	125.54587	-752.78770	-342.29004	74.65746	-701.65223	-148.24025	50.57569	-784.44835	-90.06714	76.30874	-720.46447	-186.78897	534.82043	-573.22129	-239.79725	134.13815	-557.60924	-182.06288	541.76839	-642.23568	-237.93910	130.66965	-656.34411	-199.49454	344.49894	-421.35191	-232.28426	476.73883	-408.65235	-277.20785	369.90915	-402.01045	-288.71668	472.26054	-795.73251	-291.37223	349.99529	-792.56356	-98.77899	867.54090	-419.85626	-105.90558	757.27176	-424.63106	-163.94061	734.01380	-400.73716	-213.20352	867.91535	-417.14477	-212.42613	753.41765	-420.95246	-90.39835	831.91766	-784.34233	-95.96568	691.76964	-773.15038	-199.73567	834.75987	-801.50813	-208.65668	697.90895	-796.36244	-87.60425	1084.57304	-465.86793	-263.80573	1094.25902	-545.43786	-73.78882	1087.74299	-716.82831	-259.47932	1092.72487	-653.72746	-248.14296	1630.81778	-596.90468	-172.86719	1573.79250	-429.29145	-192.46943	1575.90795	-770.33376	-116.27080	1560.19344	-569.80814	-119.15148	1557.72916	-627.26007	-150.97152	1417.95168	-359.64209	-210.83648	1210.02224	-388.97037	-203.15601	1234.48337	-308.94745	-135.33231	1079.70311	-263.71990	-86.85646	994.64904	-258.21591	-130.48478	996.89616	-241.32730	-205.48093	1450.10676	-849.56483	-216.93845	1210.06085	-809.19937	-217.43413	1230.21709	-886.98461	-172.16311	1179.97066	-927.26416	-103.61768	1015.97905	-960.72754	-143.50812	1005.33784	-965.28481	-160.19280	966.26073	-491.59441	-154.42565	974.18560	-698.32297	-142.76013	1004.47515	-502.34056	-136.13806	1002.12698	-668.08954	
452	4.51000000	-196.68406	547.80224	-439.22311	-170.61577	451.90234	-446.13252	-274.20523	122.67417	-468.22511	-356.45740	74.38395	-516.29169	-166.20483	47.68798	-415.57887	-104.17209	74.13062	-475.44646	-193.28979	548.65734	-778.32152	-199.09085	460.04657	-803.18658	-259.32841	125.52517	-752.81731	-342.34233	74.65440	-701.69208	-148.24559	50.56519	-784.44885	-90.02315	76.25988	-720.33022	-186.79769	534.82143	-573.23175	-239.79706	134.12101	-557.60999	-182.11078	541.73889	-642.27487	-237.93807	130.62782	-656.36447	-199.54049	344.47673	-421.32696	-232.24567	476.76034	-408.60469	-277.15748	369.95174	-402.02385	-288.72396	472.24410	-795.73494	-291.37711	349.98571	-792.56912	-98.95258	867.60632	-419.80102	-105.90877	757.25845	-424.62655	-163.98766	734.01912	-400.74970	-213.25041	867.85614	-417.12667	-212.43121	753.41871	-420.93713	-90.41387	831.91924	-784.35105	-96.01317	691.77899	-773.20218	-199.77979	834.74946	-801.56807	-208.67632	697.88868	-796.39427	-87.61159	1084.59045	-465.83949	-263.84760	1094.27526	-545.46471	-73.83328	1087.77879	-716.89859	-259.66085	1092.75252	-653.59828	-248.22864	1630.79795	-596.92776	-172.94024	1573.83702	-429.32242	-192.52971	1575.91756	-770.42967	-116.35576	1560.15642	-569.84644	-119.15604	1557.59651	-627.12292	-151.00850	1417.97789	-359.62879	-210.87941	1210.10382	-388.91850	-203.18604	1234.58172	-308.86158	-135.38128	1079.77497	-263.60286	-86.87304	994.69914	-258.17830	-130.52331	996.92690	-241.27726	-205.54400	1450.08644	-849.55152	-217.02358	1210.13180	-809.21384	-217.50754	1230.22342	-887.05782	-172.17453	1180.06046	-927.38603	-103.66770	1015.96295	-960.73420	-143.57507	1005.32004	-965.32754	-160.21767	966.27820	-491.59206	-154.52785	974.21780	-698.32217	-142.69806	1004.46638	-502.26058	-136.27838	1002.13151	-668.08124	
453	4.52000000	-196.73568	547.77205	-439.24279	-170.60299	451.89480	-446.12515	-274.23908	122.60230	-468.25684	-356.46413	74.35192	-516.29369	-166.19083	47.70459	-415.57793	-104.17217	74.11437	-475.44719	-193.28322	548.62693	-778.34003	-199.08699	460.02541	-803.19500	-259.33509	125.49115	-752.83211	-342.33119	74.65515	-701.74034	-148.24552	50.54914	-784.45653	-89.97549	76.21250	-720.20974	-186.80206	534.82153	-573.23159	-239.80623	134.07735	-557.64992	-182.06872	541.75845	-642.23435	-237.93459	130.59347	-656.38452	-199.62090	344.46511	-421.22419	-232.23153	476.79399	-408.62490	-277.15150	369.96155	-402.02991	-288.71826	472.21230	-795.76371	-291.37605	349.98305	-792.58445	-98.99066	867.63235	-419.80267	-105.91950	757.28020	-424.63440	-163.95858	734.07639	-400.74520	-213.29215	867.86020	-417.14873	-212.44312	753.43671	-420.92949	-90.45207	831.95085	-784.33136	-96.04018	691.75814	-773.23053	-199.83187	834.73618	-801.66804	-208.68064	697.84938	-796.43325	-87.63496	1084.62125	-465.82502	-263.86421	1094.24854	-545.45282	-73.87581	1087.79025	-716.95155	-259.75915	1092.78616	-653.53602	-248.32051	1630.75803	-596.98000	-173.01427	1573.85376	-429.33667	-192.60379	1575.91641	-770.53639	-116.42106	1560.13213	-569.88159	-119.17872	1557.51911	-627.06497	-151.04226	1418.02984	-359.62048	-210.94192	1210.12652	-388.86202	-203.18499	1234.69479	-308.75886	-135.41361	1079.88258	-263.52786	-86.91602	994.72266	-258.15445	-130.57118	996.93831	-241.23441	-205.59478	1450.04931	-849.53982	-217.08817	1210.17617	-809.22350	-217.58126	1230.21751	-887.14909	-172.17358	1180.18538	-927.57076	-103.71598	1015.93458	-960.74074	-143.62766	1005.26067	-965.33596	-160.22485	966.28998	-491.58779	-154.58728	974.23334	-698.31918	-142.62790	1004.38795	-502.25532	-136.32915	1002.14403	-668.12524	
454	4.53000000	-196.78267	547.77485	-439.25161	-170.59016	451.91527	-446.11349	-274.25495	122.62119	-468.21069	-356.44244	74.27546	-516.24798	-166.17355	47.72996	-415.53710	-104.18885	74.09846	-475.46276	-193.28129	548.58540	-778.35026	-199.08779	459.98734	-803.21231	-259.30864	125.44625	-752.82129	-342.31094	74.63467	-701.75996	-148.24475	50.53184	-784.46678	-90.06430	76.09507	-720.21073	-186.80786	534.82322	-573.22763	-239.81972	134.03268	-557.71122	-182.00131	541.79507	-642.17753	-237.93140	130.60335	-656.38042	-199.68339	344.49172	-421.15609	-232.26638	476.80937	-408.67063	-277.16445	369.95074	-402.03399	-288.70637	472.17437	-795.78718	-291.37474	349.95449	-792.58514	-99.02413	867.62662	-419.79854	-105.93984	757.30938	-424.65175	-163.87379	734.12007	-400.72542	-213.30980	867.86724	-417.16034	-212.45244	753.44601	-420.93216	-90.53392	831.99219	-784.30995	-96.07134	691.73001	-773.28378	-199.87585	834.71131	-801.72873	-208.68396	697.81441	-796.45661	-87.68631	1084.65415	-465.85632	-263.87514	1094.21877	-545.43798	-73.91313	1087.76856	-716.98514	-259.77198	1092.80589	-653.53462	-248.40422	1630.73679	-597.10323	-173.07431	1573.86569	-429.36664	-192.69503	1575.90430	-770.59791	-116.43291	1560.15935	-569.91362	-119.24011	1557.60285	-627.20240	-151.07099	1418.08425	-359.64574	-210.97097	1210.10404	-388.84285	-203.19501	1234.77629	-308.67407	-135.45552	1079.93239	-263.47613	-86.95992	994.73989	-258.12247	-130.61960	996.97384	-241.19461	-205.64707	1450.01468	-849.55477	-217.11228	1210.19171	-809.22410	-217.64247	1230.18973	-887.20155	-172.20308	1180.29028	-927.73130	-103.76010	1015.90024	-960.75534	-143.67463	1005.20020	-965.32154	-160.23941	966.30208	-491.58735	-154.61860	974.22313	-698.32006	-142.61721	1004.31974	-502.32083	-136.32206	1002.15216	-668.19352	
